<?xml version="1.0" standalone="no"?>
<!DOCTYPE svg PUBLIC "-//W3C//DTD SVG 20010904//EN"
 "http://www.w3.org/TR/2001/REC-SVG-20010904/DTD/svg10.dtd">
<svg version="1.0" xmlns="http://www.w3.org/2000/svg"
 width="260.000000pt" height="260.000000pt" viewBox="0 0 260.000000 260.000000"
 preserveAspectRatio="xMidYMid meet">
<metadata>
Created by potrace 1.11, written by Peter Selinger 2001-2013
</metadata>
<g transform="translate(0.000000,260.000000) scale(0.100000,-0.100000)"
fill="#000000" stroke="none">
<path d="M0 1300 l0 -1300 1300 0 1300 0 0 1300 0 1300 -1300 0 -1300 0 0
-1300z m1110 135 l0 -465 250 0 250 0 0 -55 0 -55 -305 0 -305 0 0 520 0 520
55 0 55 0 0 -465z m1147 424 c43 -16 73 -36 115 -80 31 -32 58 -69 60 -81 2
-15 11 -24 26 -26 19 -3 23 -9 20 -35 -3 -31 -5 -32 -48 -33 -63 -1 -75 5
-107 53 -15 23 -45 55 -67 72 -36 29 -45 31 -116 31 -78 0 -78 0 -134 -45 -44
-36 -58 -55 -66 -88 -6 -23 -15 -58 -21 -78 -7 -22 -9 -100 -7 -210 5 -192 13
-226 71 -287 37 -39 116 -82 149 -82 13 0 51 13 85 29 49 23 67 38 88 75 l27
46 74 0 c67 0 74 -2 74 -20 0 -10 -6 -23 -13 -27 -8 -4 -26 -32 -42 -61 -31
-57 -63 -85 -142 -126 -71 -35 -203 -38 -271 -4 -67 32 -143 113 -183 193
l-34 70 0 240 c0 216 2 244 19 280 43 88 128 167 221 201 52 20 158 16 222 -7z
m-1549 -8 c54 -28 115 -90 142 -147 26 -52 37 -147 26 -208 -14 -74 -106 -178
-196 -219 -14 -6 -99 -14 -190 -17 l-165 -5 -3 -198 -2 -197 -55 0 -55 0 0
505 0 505 230 0 c208 0 235 -2 268 -19z"/>
<path d="M320 1571 l0 -178 61 -7 c103 -10 227 -7 262 8 50 20 94 77 107 139
15 67 4 107 -48 171 l-37 46 -172 0 -173 0 0 -179z"/>
</g>
</svg>
